<?xml version="1.0" encoding="utf-8"?>
<!-- Generator: Adobe Illustrator 19.0.0, SVG Export Plug-In . SVG Version: 6.00 Build 0)  -->
<svg version="1.1" id="circle-red" xmlns="http://www.w3.org/2000/svg" xmlns:xlink="http://www.w3.org/1999/xlink" x="0px" y="0px"
	 viewBox="0 0 167.9 150" style="enable-background:new 0 0 167.9 150;" xml:space="preserve">
<style type="text/css">

	.st0{fill:#000000;}
	.st1{fill:#73ABDD;}
	.st1:hover{fill:#000000;}
	.st2{fill:#AFE2FD;}
</style>

<g id="XMLID_34_">
	<path id="XMLID_41_" class="st1" d="M94.6,109.2c-5.1,5.6-12.5,9.1-20.3,9.1l-24.8,0c-5.8,0-9.7-5.9-7.3-11.2l25.6-58.5L51.6,11.6
		c-3.5,3.5-6.4,7.6-8.5,12.3l-41,92.5c-7,15.9,4.6,33.6,22,33.6h88.6L94.6,109.2z"/>
	<path id="XMLID_35_" class="st2" d="M143.8,0H79.9c-5.5,0-10.8,1.1-15.6,3.1l14.2,32.3C82.9,32.6,88,31,93.3,31h25.3
		c5.8,0,9.7,6.1,7.3,11.4l-22.3,49.8l25.5,57.8h35.8l-25-57l25.9-59.6C172.7,17.6,161.1,0,143.8,0z"/>
</g>
</svg>
